<?xml version="1.0" encoding="UTF-8"?>
<!DOCTYPE svg PUBLIC "-//W3C//DTD SVG 1.1//EN" "http://www.w3.org/Graphics/SVG/1.1/DTD/svg11.dtd">
<svg xmlns="http://www.w3.org/2000/svg" version="1.1" width="761px" height="328px" style="shape-rendering:geometricPrecision; text-rendering:geometricPrecision; image-rendering:optimizeQuality; fill-rule:evenodd; clip-rule:evenodd" xmlns:xlink="http://www.w3.org/1999/xlink">
<g><path style="opacity:0.084" fill="#010101" d="M 123.5,91.5 C 123.114,100.9 123.614,110.234 125,119.5C 127.171,124.844 131.004,128.177 136.5,129.5C 137.919,130.451 139.585,130.784 141.5,130.5C 141.817,133.572 141.484,136.572 140.5,139.5C 126.371,130.534 111.371,128.201 95.5,132.5C 80.7981,136.362 69.2981,144.696 61,157.5C 60.5002,148.506 60.3336,139.506 60.5,130.5C 64.081,130.862 67.081,129.862 69.5,127.5C 70.1667,127.5 70.5,127.167 70.5,126.5C 73.7106,124.293 75.7106,121.293 76.5,117.5C 77.4938,108.014 77.8271,98.3478 77.5,88.5C 75.8333,88.5 74.1667,88.5 72.5,88.5C 72.8182,83.9677 72.4849,79.6344 71.5,75.5C 61.1667,75.5 50.8333,75.5 40.5,75.5C 41.4525,73.39 43.1192,72.2233 45.5,72C 55.5,71.3333 65.5,71.3333 75.5,72C 80.791,74.8151 83.291,79.3151 83,85.5C 84.8294,87.1558 86.1628,89.1558 87,91.5C 87.6667,101.167 87.6667,110.833 87,120.5C 84.9971,128.502 80.1638,134.002 72.5,137C 71.1198,138.324 70.7865,139.657 71.5,141C 79.6521,135.427 88.6521,131.094 98.5,128C 107.107,126.661 115.774,126.161 124.5,126.5C 122.302,114.773 121.968,103.106 123.5,91.5 Z"/></g>
<g><path style="opacity:0.085" fill="#010101" d="M 35.5,90.5 C 35.1734,99.6822 35.5067,108.682 36.5,117.5C 36.5295,122.161 38.5295,125.494 42.5,127.5C 45.381,129.68 48.7144,130.68 52.5,130.5C 52.1695,150.674 52.5029,170.674 53.5,190.5C 53.6457,197.445 55.1457,204.112 58,210.5C 59.5818,214.894 62.0818,218.561 65.5,221.5C 68.2435,226.578 72.2435,230.245 77.5,232.5C 79.1475,234.326 81.1475,235.66 83.5,236.5C 87.5313,239.734 92.198,241.401 97.5,241.5C 105.495,244.107 113.495,244.107 121.5,241.5C 130.541,239.977 138.541,236.311 145.5,230.5C 149.167,226.5 152.833,222.5 156.5,218.5C 168.904,199.192 169.571,179.526 158.5,159.5C 158.672,158.508 158.338,157.842 157.5,157.5C 155.748,153.69 153.248,150.357 150,147.5C 149.501,141.509 149.334,135.509 149.5,129.5C 149.833,129.5 150.167,129.5 150.5,129.5C 154.636,129.771 158.303,128.604 161.5,126C 162.609,124.124 163.609,122.291 164.5,120.5C 165.268,119.737 165.768,118.737 166,117.5C 166.5,107.839 166.666,98.1724 166.5,88.5C 164.833,88.5 163.167,88.5 161.5,88.5C 161.818,83.9677 161.485,79.6344 160.5,75.5C 150.167,75.5 139.833,75.5 129.5,75.5C 130.749,73.8639 132.416,72.6972 134.5,72C 145.573,71.0692 156.573,71.4025 167.5,73C 170.807,76.0689 172.307,79.9023 172,84.5C 173.586,86.6705 174.92,89.0038 176,91.5C 176.667,101.167 176.667,110.833 176,120.5C 173.885,128.451 169.052,134.118 161.5,137.5C 159.079,140.642 158.912,143.975 161,147.5C 183.159,178.447 181.326,207.947 155.5,236C 128.952,255.797 101.952,256.463 74.5,238C 60.1667,225.834 52.3334,210.334 51,191.5C 50.6667,173.833 50.3333,156.167 50,138.5C 40.9432,134.78 35.6099,128.113 34,118.5C 33.3333,110.167 33.3333,101.833 34,93.5C 34.2321,92.2625 34.7321,91.2625 35.5,90.5 Z M 143.5,105.5 C 156.065,102.222 159.732,106.389 154.5,118C 143.605,120.413 139.938,116.247 143.5,105.5 Z M 54.5,105.5 C 58.7675,105.203 62.9341,105.536 67,106.5C 69.6167,117.553 65.6167,121.219 55,117.5C 53.3303,113.51 53.1637,109.51 54.5,105.5 Z M 136.5,202.5 C 126.585,215.169 114.251,218.002 99.5,211C 86.7864,200.633 84.2864,188.133 92,173.5C 104.755,160.058 118.421,159.058 133,170.5C 140.191,180.471 141.358,191.138 136.5,202.5 Z"/></g>
<g><path style="opacity:0.368" fill="#7ab98a" d="M 129.5,75.5 C 139.833,75.5 150.167,75.5 160.5,75.5C 150.681,76.494 140.681,76.8274 130.5,76.5C 130.5,79.5 130.5,82.5 130.5,85.5C 130.5,86.8333 130.5,88.1667 130.5,89.5C 128.833,89.5 127.167,89.5 125.5,89.5C 125.167,89.5 124.833,89.5 124.5,89.5C 124.5,89.1667 124.5,88.8333 124.5,88.5C 126.167,88.5 127.833,88.5 129.5,88.5C 129.5,84.5 129.5,80.5 129.5,76.5C 129.5,76.1667 129.5,75.8333 129.5,75.5 Z"/></g>
<g><path style="opacity:0.009" fill="#000000" d="M 129.5,76.5 C 129.5,80.5 129.5,84.5 129.5,88.5C 127.833,88.5 126.167,88.5 124.5,88.5C 125.122,87.3734 125.955,86.3734 127,85.5C 127.204,82.2026 128.037,79.2026 129.5,76.5 Z"/></g>
<g><path style="opacity:0.007" fill="#000000" d="M 39.5,77.5 C 39.5,81.1667 39.5,84.8333 39.5,88.5C 38.5,88.5 37.5,88.5 36.5,88.5C 37.134,84.6273 38.134,80.9606 39.5,77.5 Z"/></g>
<g><path style="opacity:0.125" fill="#83bd90" d="M 40.5,75.5 C 50.8333,75.5 61.1667,75.5 71.5,75.5C 71.5,75.8333 71.5,76.1667 71.5,76.5C 61.1667,76.5 50.8333,76.5 40.5,76.5C 40.5,80.5 40.5,84.5 40.5,88.5C 40.1583,89.3382 39.4916,89.6716 38.5,89.5C 36.5278,98.4401 35.8611,107.773 36.5,117.5C 35.5067,108.682 35.1734,99.6822 35.5,90.5C 35.3284,89.5084 35.6618,88.8417 36.5,88.5C 37.5,88.5 38.5,88.5 39.5,88.5C 39.5,84.8333 39.5,81.1667 39.5,77.5C 39.3284,76.5084 39.6618,75.8417 40.5,75.5 Z"/></g>
<g><path style="opacity:1" fill="#049223" d="M 132.5,96.5 C 131.167,102.833 131.167,109.167 132.5,115.5C 132.557,116.609 132.89,117.609 133.5,118.5C 134.203,120.716 135.536,122.549 137.5,124C 144.314,124.991 150.98,124.491 157.5,122.5C 158.833,123.833 158.833,125.167 157.5,126.5C 155.24,127.912 152.907,128.912 150.5,129.5C 150.167,129.5 149.833,129.5 149.5,129.5C 148.883,129.611 148.383,129.944 148,130.5C 147.83,136.196 147.33,141.862 146.5,147.5C 144.905,146.321 142.905,146.321 140.5,147.5C 140.544,143.91 142.211,141.41 145.5,140C 144.54,136.27 144.207,132.437 144.5,128.5C 138.16,128.497 132.827,126.163 128.5,121.5C 128.315,119.804 127.481,118.471 126,117.5C 125.5,108.173 125.334,98.8393 125.5,89.5C 127.167,89.5 128.833,89.5 130.5,89.5C 130.5,88.1667 130.5,86.8333 130.5,85.5C 131.473,83.0521 131.806,80.3854 131.5,77.5C 141.167,77.5 150.833,77.5 160.5,77.5C 160.5,81.8333 160.5,86.1667 160.5,90.5C 161.833,90.5 163.167,90.5 164.5,90.5C 164.976,101.279 164.31,111.945 162.5,122.5C 161.5,122.5 160.5,122.5 159.5,122.5C 160.347,113.528 160.68,104.528 160.5,95.5C 150.985,95.1731 141.652,95.5064 132.5,96.5 Z M 143.5,105.5 C 139.938,116.247 143.605,120.413 154.5,118C 159.732,106.389 156.065,102.222 143.5,105.5 Z"/></g>
<g><path style="opacity:0.243" fill="#43714e" d="M 136.5,82.5 C 142.5,82.5 148.5,82.5 154.5,82.5C 154.5,84.8333 154.5,87.1667 154.5,89.5C 148.5,89.5 142.5,89.5 136.5,89.5C 136.5,87.1667 136.5,84.8333 136.5,82.5 Z"/></g>
<g><path style="opacity:0.192" fill="#000000" d="M 137.5,83.5 C 142.833,83.5 148.167,83.5 153.5,83.5C 153.5,85.1667 153.5,86.8333 153.5,88.5C 148.167,88.5 142.833,88.5 137.5,88.5C 137.5,86.8333 137.5,85.1667 137.5,83.5 Z"/></g>
<g><path style="opacity:1" fill="#1b892f" d="M 71.5,76.5 C 71.5,80.8333 71.5,85.1667 71.5,89.5C 73.1667,89.5 74.8333,89.5 76.5,89.5C 76.5,98.8333 76.5,108.167 76.5,117.5C 75.7106,121.293 73.7106,124.293 70.5,126.5C 70.6261,124.8 71.2927,123.3 72.5,122C 72.0946,121.055 71.428,120.388 70.5,120C 71.7932,119.51 73.1266,119.343 74.5,119.5C 74.1686,110.315 74.1686,100.982 74.5,91.5C 73.5,91.5 72.5,91.5 71.5,91.5C 71.6664,99.5069 71.4997,107.507 71,115.5C 70.6174,116.056 70.1174,116.389 69.5,116.5C 69.5,109.833 69.5,103.167 69.5,96.5C 60.8333,96.5 52.1667,96.5 43.5,96.5C 43.3337,103.175 43.5004,109.842 44,116.5C 48.0166,123.138 53.8499,125.304 61.5,123C 64.5759,121.757 67.2426,119.923 69.5,117.5C 68.4086,120.428 66.4086,122.594 63.5,124C 57.3877,124.909 51.3877,124.576 45.5,123C 43.1295,120.326 41.9628,117.159 42,113.5C 41.5005,107.175 41.3338,100.842 41.5,94.5C 47.8421,94.6662 54.1754,94.4995 60.5,94C 56.6327,92.0125 56.6327,91.5125 60.5,92.5C 61.6956,92.1543 61.6956,91.6543 60.5,91C 55.9805,90.8247 51.6472,90.3247 47.5,89.5C 53.358,89.8222 59.0247,89.4889 64.5,88.5C 64.5,86.8333 64.5,85.1667 64.5,83.5C 64.5,83.1667 64.5,82.8333 64.5,82.5C 61.023,81.6773 57.3563,81.1773 53.5,81C 57.0894,80.7931 60.5894,80.2931 64,79.5C 66.2899,82.6492 68.2899,85.9826 70,89.5C 70.4988,85.5138 70.6655,81.5138 70.5,77.5C 60.8333,77.5 51.1667,77.5 41.5,77.5C 41.815,81.3714 41.4816,85.0381 40.5,88.5C 40.5,84.5 40.5,80.5 40.5,76.5C 50.8333,76.5 61.1667,76.5 71.5,76.5 Z M 54.5,105.5 C 53.1637,109.51 53.3303,113.51 55,117.5C 65.6167,121.219 69.6167,117.553 67,106.5C 62.9341,105.536 58.7675,105.203 54.5,105.5 Z"/></g>
<g><path style="opacity:0.289" fill="#3f7d47" d="M 124.5,89.5 C 124.833,89.5 125.167,89.5 125.5,89.5C 125.334,98.8393 125.5,108.173 126,117.5C 127.481,118.471 128.315,119.804 128.5,121.5C 128.369,122.239 128.536,122.906 129,123.5C 131.156,126.121 133.656,128.121 136.5,129.5C 131.004,128.177 127.171,124.844 125,119.5C 123.614,110.234 123.114,100.9 123.5,91.5C 123.328,90.5084 123.662,89.8417 124.5,89.5 Z"/></g>
<g><path style="opacity:0.51" fill="#57805f" d="M 71.5,75.5 C 72.4849,79.6344 72.8182,83.9677 72.5,88.5C 74.1667,88.5 75.8333,88.5 77.5,88.5C 77.8271,98.3478 77.4938,108.014 76.5,117.5C 76.5,108.167 76.5,98.8333 76.5,89.5C 74.8333,89.5 73.1667,89.5 71.5,89.5C 71.5,85.1667 71.5,80.8333 71.5,76.5C 71.5,76.1667 71.5,75.8333 71.5,75.5 Z"/></g>
<g><path style="opacity:0.1" fill="#000100" d="M 158.5,97.5 C 158.666,103.176 158.499,108.843 158,114.5C 157.394,117.548 155.894,120.048 153.5,122C 145.96,124.917 139.293,123.75 133.5,118.5C 132.89,117.609 132.557,116.609 132.5,115.5C 132.5,109.5 132.5,103.5 132.5,97.5C 141.167,97.5 149.833,97.5 158.5,97.5 Z M 143.5,105.5 C 139.938,116.247 143.605,120.413 154.5,118C 159.732,106.389 156.065,102.222 143.5,105.5 Z"/></g>
<g><path style="opacity:0.555" fill="#547e5d" d="M 161.5,88.5 C 163.167,88.5 164.833,88.5 166.5,88.5C 166.666,98.1724 166.5,107.839 166,117.5C 165.768,118.737 165.268,119.737 164.5,120.5C 165.4,110.198 165.733,99.8652 165.5,89.5C 163.901,89.7678 162.568,89.4345 161.5,88.5 Z"/></g>
<g><path style="opacity:0.584" fill="#376441" d="M 132.5,96.5 C 141.349,96.1736 150.016,96.507 158.5,97.5C 149.833,97.5 141.167,97.5 132.5,97.5C 132.5,103.5 132.5,109.5 132.5,115.5C 131.167,109.167 131.167,102.833 132.5,96.5 Z"/></g>
<g><path style="opacity:0.71" fill="#328842" d="M 38.5,89.5 C 37.0275,100.507 37.3609,111.507 39.5,122.5C 40.7629,124.029 41.7629,125.695 42.5,127.5C 38.5295,125.494 36.5295,122.161 36.5,117.5C 35.8611,107.773 36.5278,98.4401 38.5,89.5 Z"/></g>
<g><path style="opacity:0.081" fill="#010201" d="M 315.5,128.5 C 317.925,125.238 321.258,123.738 325.5,124C 332.5,123.333 339.5,123.333 346.5,124C 349.692,124.197 352.692,125.03 355.5,126.5C 356.183,126.137 356.85,125.804 357.5,125.5C 357.5,148.167 357.5,170.833 357.5,193.5C 360.5,193.5 363.5,193.5 366.5,193.5C 366.5,170.5 366.5,147.5 366.5,124.5C 363.5,124.5 360.5,124.5 357.5,124.5C 359.576,121.298 362.576,119.965 366.5,120.5C 370.694,120.19 373.861,121.857 376,125.5C 377.153,136.463 377.819,147.463 378,158.5C 389.306,143.55 403.14,140.716 419.5,150C 422.333,152.833 425.167,155.667 428,158.5C 439.602,144.391 453.769,140.891 470.5,148C 472.649,146.836 474.815,145.67 477,144.5C 477.204,141.203 478.037,138.203 479.5,135.5C 485.506,130.017 491.339,130.35 497,136.5C 497.953,139.432 498.453,142.432 498.5,145.5C 501.203,145.955 503.87,146.622 506.5,147.5C 509.013,146.245 511.68,145.578 514.5,145.5C 520.822,146.286 527.155,146.453 533.5,146C 536.937,147.105 539.437,149.272 541,152.5C 557.861,140.42 572.861,142.42 586,158.5C 586.698,155.996 587.531,153.663 588.5,151.5C 588.5,165.5 588.5,179.5 588.5,193.5C 591.833,193.5 595.167,193.5 598.5,193.5C 598.5,183.5 598.5,173.5 598.5,163.5C 602.705,157.32 608.372,155.82 615.5,159C 617.125,161.095 618.458,163.261 619.5,165.5C 619.5,174.833 619.5,184.167 619.5,193.5C 622.385,193.806 625.052,193.473 627.5,192.5C 628.658,182.675 628.825,172.675 628,162.5C 624.916,152.371 618.083,147.871 607.5,149C 605.347,149.099 603.681,149.933 602.5,151.5C 600.629,151.859 599.129,152.859 598,154.5C 597.506,152.866 597.34,151.199 597.5,149.5C 594.833,149.5 592.167,149.5 589.5,149.5C 590.343,147.827 591.676,146.66 593.5,146C 601.864,146.461 610.197,146.128 618.5,145C 626.983,146.81 633.149,151.643 637,159.5C 637.897,155.848 638.73,152.181 639.5,148.5C 638.148,145.838 637.481,143.005 637.5,140C 637.336,137.456 638.003,135.29 639.5,133.5C 640.219,131.112 641.885,129.612 644.5,129C 653.376,127.097 658.376,130.597 659.5,139.5C 659.248,142.59 658.581,145.59 657.5,148.5C 658.143,151.884 658.977,155.217 660,158.5C 673.138,142.738 688.305,140.404 705.5,151.5C 715.225,143.327 725.558,142.493 736.5,149C 742.408,155.051 742.741,161.551 737.5,168.5C 743.411,176.86 743.911,185.526 739,194.5C 728.102,204.38 716.602,205.046 704.5,196.5C 687.26,206.475 672.427,203.808 660,188.5C 657.035,202.514 649.868,205.181 638.5,196.5C 633.717,201.644 628.05,202.81 621.5,200C 619.959,198.421 618.792,196.587 618,194.5C 617.667,186.5 617.333,178.5 617,170.5C 615.414,166.046 612.747,165.379 609,168.5C 608.667,176.833 608.333,185.167 608,193.5C 604.897,201.291 599.397,203.458 591.5,200C 588.404,196.818 586.571,192.984 586,188.5C 574.284,203.302 560.117,206.135 543.5,197C 533.787,189.063 530.12,178.896 532.5,166.5C 528.749,166.082 526.582,167.749 526,171.5C 525.667,179.167 525.333,186.833 525,194.5C 523.427,199.645 519.927,201.978 514.5,201.5C 508.809,201.583 505.309,198.917 504,193.5C 503.5,184.173 503.334,174.839 503.5,165.5C 501.856,165.286 500.356,165.62 499,166.5C 498.667,175.5 498.333,184.5 498,193.5C 495.568,200.302 490.735,202.802 483.5,201C 481,199.833 479.167,198 478,195.5C 477.306,192.532 476.806,189.532 476.5,186.5C 477.488,180.185 477.654,173.852 477,167.5C 476.692,166.692 476.192,166.025 475.5,165.5C 470.175,172.883 464.175,173.383 457.5,167C 447.872,165.409 444.705,169.242 448,178.5C 452.163,182.435 456.33,182.435 460.5,178.5C 459.032,182.23 456.365,184.563 452.5,185.5C 449.455,185.492 446.455,185.159 443.5,184.5C 442.833,184.5 442.167,184.5 441.5,184.5C 435.021,178.07 433.854,170.737 438,162.5C 444.124,156.819 450.958,155.986 458.5,160C 459.956,161.745 461.289,163.578 462.5,165.5C 464.75,162.165 465.584,158.498 465,154.5C 456.434,147.696 447.6,147.03 438.5,152.5C 433.43,155.074 429.93,159.074 428,164.5C 425.138,181.797 432.304,191.797 449.5,194.5C 452.08,194.276 454.414,193.609 456.5,192.5C 459.119,192.075 461.453,191.075 463.5,189.5C 464.947,188.866 465.613,187.699 465.5,186C 465,183.5 464.5,181 464,178.5C 463.617,177.944 463.117,177.611 462.5,177.5C 468.946,174.135 473.113,176.135 475,183.5C 476.627,189.732 474.794,194.565 469.5,198C 450.395,206.687 435.895,201.854 426,183.5C 426.89,192.944 422.723,198.777 413.5,201C 398.791,204.765 386.957,200.598 378,188.5C 375.692,201.486 368.692,204.82 357,198.5C 355.37,199.713 353.536,200.546 351.5,201C 340.833,201.667 330.167,201.667 319.5,201C 316.667,199.5 314.5,197.333 313,194.5C 311.833,197.667 309.667,199.833 306.5,201C 300.515,201.924 294.681,201.424 289,199.5C 285.493,200.926 281.827,201.592 278,201.5C 269.532,201.114 261.032,200.948 252.5,201C 248.447,198.613 245.447,195.28 243.5,191C 239.459,190.173 235.459,190.34 231.5,191.5C 227.561,201.058 220.561,204.225 210.5,201C 205.094,199.02 203.261,195.186 205,189.5C 209.943,177.294 215.109,165.294 220.5,153.5C 220.5,154.5 220.5,155.5 220.5,156.5C 219.061,158.588 218.394,160.921 218.5,163.5C 214.047,171.413 210.381,179.746 207.5,188.5C 206.069,189.78 205.402,191.447 205.5,193.5C 210.032,193.818 214.366,193.485 218.5,192.5C 220.263,189.136 221.93,185.636 223.5,182C 230.826,181.5 238.159,181.334 245.5,181.5C 245.5,182.833 245.5,184.167 245.5,185.5C 246.358,188.05 247.358,190.55 248.5,193C 253.155,193.499 257.821,193.666 262.5,193.5C 261.737,189.863 260.403,186.53 258.5,183.5C 251.497,166.829 244.497,150.162 237.5,133.5C 236.545,131.254 235.878,128.921 235.5,126.5C 234.5,126.5 233.5,126.5 232.5,126.5C 236.676,122.891 240.842,123.225 245,127.5C 251.059,141.951 257.392,156.284 264,170.5C 264.801,155.34 265.634,140.34 266.5,125.5C 266.333,147.836 266.5,170.169 267,192.5C 270.394,193.456 273.894,193.789 277.5,193.5C 278.833,193.5 280.167,193.5 281.5,193.5C 281.831,170.327 281.498,147.327 280.5,124.5C 276.167,124.5 271.833,124.5 267.5,124.5C 267.937,122.926 268.937,121.759 270.5,121C 275.5,120.333 280.5,120.333 285.5,121C 288.404,122.982 290.738,125.482 292.5,128.5C 300.644,124.675 307.31,126.342 312.5,133.5C 313.325,131.64 314.325,129.974 315.5,128.5 Z M 353.5,143.5 C 355.481,156.124 356.148,169.124 355.5,182.5C 348.967,180.794 342.301,180.128 335.5,180.5C 335.5,175.833 335.5,171.167 335.5,166.5C 341.233,167.109 346.4,165.776 351,162.5C 354.282,156.442 353.449,150.942 348.5,146C 350.315,145.243 351.981,144.41 353.5,143.5 Z M 311.5,145.5 C 313.972,146.749 314.139,148.415 312,150.5C 311.506,148.866 311.34,147.199 311.5,145.5 Z M 706.5,178.5 C 706.167,178.5 705.833,178.5 705.5,178.5C 701.647,175.073 697.647,174.739 693.5,177.5C 691.072,179.249 688.406,180.582 685.5,181.5C 678.956,179.969 676.789,175.969 679,169.5C 681.909,166.606 685.409,165.773 689.5,167C 693.376,170.744 698.043,172.41 703.5,172C 705.612,174.027 706.612,176.193 706.5,178.5 Z M 556.5,166.5 C 567.029,165.69 570.029,170.023 565.5,179.5C 556.887,182.726 553.054,179.726 554,170.5C 554.662,169.016 555.496,167.683 556.5,166.5 Z"/></g>
<g><path style="opacity:1" fill="#1b852f" d="M 160.5,75.5 C 161.485,79.6344 161.818,83.9677 161.5,88.5C 162.568,89.4345 163.901,89.7678 165.5,89.5C 165.733,99.8652 165.4,110.198 164.5,120.5C 163.609,122.291 162.609,124.124 161.5,126C 158.303,128.604 154.636,129.771 150.5,129.5C 152.907,128.912 155.24,127.912 157.5,126.5C 158.833,125.167 158.833,123.833 157.5,122.5C 150.98,124.491 144.314,124.991 137.5,124C 135.536,122.549 134.203,120.716 133.5,118.5C 139.293,123.75 145.96,124.917 153.5,122C 155.894,120.048 157.394,117.548 158,114.5C 158.499,108.843 158.666,103.176 158.5,97.5C 150.016,96.507 141.349,96.1736 132.5,96.5C 141.652,95.5064 150.985,95.1731 160.5,95.5C 160.68,104.528 160.347,113.528 159.5,122.5C 160.5,122.5 161.5,122.5 162.5,122.5C 164.31,111.945 164.976,101.279 164.5,90.5C 163.167,90.5 161.833,90.5 160.5,90.5C 160.5,86.1667 160.5,81.8333 160.5,77.5C 150.833,77.5 141.167,77.5 131.5,77.5C 131.806,80.3854 131.473,83.0521 130.5,85.5C 130.5,82.5 130.5,79.5 130.5,76.5C 140.681,76.8274 150.681,76.494 160.5,75.5 Z"/></g>
<g><path style="opacity:0.006" fill="#000000" d="M 231.5,128.5 C 231.293,131.241 230.293,133.574 228.5,135.5C 228.707,132.759 229.707,130.426 231.5,128.5 Z"/></g>
<g><path style="opacity:0.357" fill="#264429" d="M 69.5,127.5 C 67.081,129.862 64.081,130.862 60.5,130.5C 63.341,129.331 66.341,128.331 69.5,127.5 Z"/></g>
<g><path style="opacity:0.937" fill="#2f7c3e" d="M 302.5,140.5 C 301.881,132.711 297.881,130.378 290.5,133.5C 290.953,132.542 291.619,131.708 292.5,131C 300.743,129.558 304.076,132.724 302.5,140.5 Z"/></g>
<g><path style="opacity:1" fill="#069024" d="M 347.5,136.5 C 339.833,136.5 332.167,136.5 324.5,136.5C 324.5,140.833 324.5,145.167 324.5,149.5C 330.5,149.5 336.5,149.5 342.5,149.5C 342.5,152.167 342.5,154.833 342.5,157.5C 336.5,157.5 330.5,157.5 324.5,157.5C 324.5,166.833 324.5,176.167 324.5,185.5C 325.5,185.5 326.5,185.5 327.5,185.5C 334.167,185.5 340.833,185.5 347.5,185.5C 347.5,187.833 347.5,190.167 347.5,192.5C 337.251,192.819 327.084,192.486 317,191.5C 316.5,170.836 316.333,150.169 316.5,129.5C 326.833,129.5 337.167,129.5 347.5,129.5C 347.5,131.833 347.5,134.167 347.5,136.5 Z"/></g>
<g><path style="opacity:1" fill="#188d2a" d="M 639.5,133.5 C 646.642,130.326 649.808,132.659 649,140.5C 644.251,145.017 640.751,144.183 638.5,138C 639.148,136.56 639.481,135.06 639.5,133.5 Z"/></g>
<g><path style="opacity:0.005" fill="#060606" d="M 228.5,135.5 C 227.958,138.912 226.625,141.912 224.5,144.5C 225.042,141.088 226.375,138.088 228.5,135.5 Z"/></g>
<g><path style="opacity:1" fill="#059321" d="M 302.5,140.5 C 301.167,141.167 300.167,142.167 299.5,143.5C 291.975,144.513 288.975,141.179 290.5,133.5C 297.881,130.378 301.881,132.711 302.5,140.5 Z"/></g>
<g><path style="opacity:0.113" fill="#060b06" d="M 114.5,137.5 C 119.15,138.181 123.816,139.347 128.5,141C 132.5,143.667 136.5,146.333 140.5,149C 141.822,153.267 141.822,157.434 140.5,161.5C 139.833,160.167 138.833,159.167 137.5,158.5C 130.037,150.857 120.87,146.857 110,146.5C 104.868,146.725 100.035,147.725 95.5,149.5C 93.8297,149.751 92.3297,150.418 91,151.5C 90.3333,150.833 90.3333,150.167 91,149.5C 97.4911,142.672 105.324,138.672 114.5,137.5 Z"/></g>
<g><path style="opacity:1" fill="#1e8a30" d="M 128.5,121.5 C 132.827,126.163 138.16,128.497 144.5,128.5C 144.207,132.437 144.54,136.27 145.5,140C 142.211,141.41 140.544,143.91 140.5,147.5C 142.905,146.321 144.905,146.321 146.5,147.5C 147.33,141.862 147.83,136.196 148,130.5C 148.383,129.944 148.883,129.611 149.5,129.5C 149.334,135.509 149.501,141.509 150,147.5C 153.248,150.357 155.748,153.69 157.5,157.5C 154.619,156.391 152.619,154.391 151.5,151.5C 149.097,150.296 146.764,149.962 144.5,150.5C 143.833,154.833 143.167,159.167 142.5,163.5C 141.478,163.145 140.811,162.478 140.5,161.5C 141.822,157.434 141.822,153.267 140.5,149C 136.5,146.333 132.5,143.667 128.5,141C 123.816,139.347 119.15,138.181 114.5,137.5C 117.48,136.734 120.48,135.901 123.5,135C 122.167,134.333 120.833,133.667 119.5,133C 111.507,132.5 103.507,132.334 95.5,132.5C 111.371,128.201 126.371,130.534 140.5,139.5C 141.484,136.572 141.817,133.572 141.5,130.5C 139.585,130.784 137.919,130.451 136.5,129.5C 133.656,128.121 131.156,126.121 129,123.5C 128.536,122.906 128.369,122.239 128.5,121.5 Z"/></g>
<g><path style="opacity:0.698" fill="#3b7145" d="M 290.5,133.5 C 288.975,141.179 291.975,144.513 299.5,143.5C 293.46,146.643 289.794,144.643 288.5,137.5C 288.668,135.829 289.335,134.496 290.5,133.5 Z"/></g>
<g><path style="opacity:0.006" fill="#000000" d="M 224.5,144.5 C 224.122,146.921 223.455,149.254 222.5,151.5C 222.167,151.5 221.833,151.5 221.5,151.5C 221.707,148.759 222.707,146.426 224.5,144.5 Z"/></g>
<g><path style="opacity:1" fill="#2c8a3a" d="M 232.5,126.5 C 233.5,126.5 234.5,126.5 235.5,126.5C 235.878,128.921 236.545,131.254 237.5,133.5C 235.983,133.489 234.816,132.823 234,131.5C 230.084,136.442 228.084,142.109 228,148.5C 226.702,149.56 225.535,150.726 224.5,152C 223.335,156.376 221.335,160.209 218.5,163.5C 218.394,160.921 219.061,158.588 220.5,156.5C 221.537,155.07 222.204,153.403 222.5,151.5C 223.455,149.254 224.122,146.921 224.5,144.5C 226.625,141.912 227.958,138.912 228.5,135.5C 230.293,133.574 231.293,131.241 231.5,128.5C 231.328,127.508 231.662,126.842 232.5,126.5 Z"/></g>
<g><path style="opacity:0.138" fill="#030604" d="M 76.5,158.5 C 73.0783,163.585 70.9116,169.252 70,175.5C 66.5634,192.272 71.0634,206.438 83.5,218C 87.5765,220.705 91.9099,222.872 96.5,224.5C 103.721,227.934 111.055,228.267 118.5,225.5C 125.743,224.216 131.743,220.883 136.5,215.5C 141.807,212.201 145.14,207.534 146.5,201.5C 148.04,199.162 148.706,196.495 148.5,193.5C 149.331,182.341 149.831,171.007 150,159.5C 150.383,160.056 150.883,160.389 151.5,160.5C 156.878,171.863 158.878,183.863 157.5,196.5C 154.424,207.304 148.757,216.637 140.5,224.5C 135.423,228.036 130.09,231.036 124.5,233.5C 124.167,233.5 123.833,233.5 123.5,233.5C 100.823,238.311 82.4897,231.645 68.5,213.5C 67.8897,211.566 66.8897,209.899 65.5,208.5C 64.3359,204.341 63.0026,200.341 61.5,196.5C 61.1667,196.5 60.8333,196.5 60.5,196.5C 60.5,190.5 60.5,184.5 60.5,178.5C 62.9304,171.634 65.9304,164.968 69.5,158.5C 74.0555,150.922 80.3889,145.756 88.5,143C 83.1127,147.205 79.1127,152.372 76.5,158.5 Z M 136.5,202.5 C 141.358,191.138 140.191,180.471 133,170.5C 118.421,159.058 104.755,160.058 92,173.5C 84.2864,188.133 86.7864,200.633 99.5,211C 114.251,218.002 126.585,215.169 136.5,202.5 Z"/></g>
<g><path style="opacity:1" fill="#0c9226" d="M 479.5,135.5 C 482.167,135.5 484.833,135.5 487.5,135.5C 487.5,140.167 487.5,144.833 487.5,149.5C 490.625,150.479 493.958,150.813 497.5,150.5C 497.5,152.5 497.5,154.5 497.5,156.5C 493.894,156.211 490.394,156.544 487,157.5C 486.832,168.848 486.332,180.181 485.5,191.5C 483.929,192.309 482.262,192.643 480.5,192.5C 480.5,180.5 480.5,168.5 480.5,156.5C 476.498,156.964 472.831,156.298 469.5,154.5C 469.5,152.833 469.5,151.167 469.5,149.5C 472.833,149.5 476.167,149.5 479.5,149.5C 479.5,144.833 479.5,140.167 479.5,135.5 Z"/></g>
<g><path style="opacity:0.4" fill="#3c864b" d="M 315.5,128.5 C 326.5,128.5 337.5,128.5 348.5,128.5C 348.806,131.385 348.473,134.052 347.5,136.5C 347.5,134.167 347.5,131.833 347.5,129.5C 337.167,129.5 326.833,129.5 316.5,129.5C 316.333,150.169 316.5,170.836 317,191.5C 327.084,192.486 337.251,192.819 347.5,192.5C 347.5,190.167 347.5,187.833 347.5,185.5C 340.833,185.5 334.167,185.5 327.5,185.5C 334.313,184.509 341.313,184.175 348.5,184.5C 348.5,187.5 348.5,190.5 348.5,193.5C 337.5,193.5 326.5,193.5 315.5,193.5C 315.5,171.833 315.5,150.167 315.5,128.5 Z"/></g>
<g><path style="opacity:0.976" fill="#237f34" d="M 670.5,161.5 C 670.461,160.417 670.127,159.417 669.5,158.5C 673.334,157.008 677.334,156.341 681.5,156.5C 684.167,156.667 686.833,156.833 689.5,157C 694.332,164.662 696.332,163.995 695.5,155C 687.758,150.158 679.425,148.991 670.5,151.5C 679.538,147.165 688.205,147.999 696.5,154C 697.687,158.099 697.021,161.932 694.5,165.5C 687.75,156.464 679.75,155.13 670.5,161.5 Z"/></g>
<g><path style="opacity:1" fill="#0b9125" d="M 64.5,82.5 C 58.8333,82.5 53.1667,82.5 47.5,82.5C 47.5,84.8333 47.5,87.1667 47.5,89.5C 51.6472,90.3247 55.9805,90.8247 60.5,91C 61.6956,91.6543 61.6956,92.1543 60.5,92.5C 56.6327,91.5125 56.6327,92.0125 60.5,94C 54.1754,94.4995 47.8421,94.6662 41.5,94.5C 41.3338,100.842 41.5005,107.175 42,113.5C 41.9628,117.159 43.1295,120.326 45.5,123C 51.3877,124.576 57.3877,124.909 63.5,124C 66.4086,122.594 68.4086,120.428 69.5,117.5C 69.5,117.167 69.5,116.833 69.5,116.5C 70.1174,116.389 70.6174,116.056 71,115.5C 71.4997,107.507 71.6664,99.5069 71.5,91.5C 72.5,91.5 73.5,91.5 74.5,91.5C 74.1686,100.982 74.1686,110.315 74.5,119.5C 73.1266,119.343 71.7932,119.51 70.5,120C 71.428,120.388 72.0946,121.055 72.5,122C 71.2927,123.3 70.6261,124.8 70.5,126.5C 70.5,127.167 70.1667,127.5 69.5,127.5C 66.341,128.331 63.341,129.331 60.5,130.5C 60.3336,139.506 60.5002,148.506 61,157.5C 69.2981,144.696 80.7981,136.362 95.5,132.5C 103.507,132.334 111.507,132.5 119.5,133C 120.833,133.667 122.167,134.333 123.5,135C 120.48,135.901 117.48,136.734 114.5,137.5C 105.324,138.672 97.4911,142.672 91,149.5C 90.3333,150.167 90.3333,150.833 91,151.5C 92.3297,150.418 93.8297,149.751 95.5,149.5C 103.494,148.301 111.494,148.301 119.5,149.5C 122.903,150.347 125.903,151.847 128.5,154C 128.37,155.059 127.87,155.892 127,156.5C 124.435,154.821 121.602,154.154 118.5,154.5C 104.433,151.8 92.5992,155.8 83,166.5C 81.0073,168.818 79.8406,171.484 79.5,174.5C 77.9328,175.681 77.0995,177.347 77,179.5C 76.5012,183.486 76.3345,187.486 76.5,191.5C 76.1866,194.247 76.52,196.914 77.5,199.5C 79.8735,202.453 80.7068,205.786 80,209.5C 79.3333,208.833 78.6667,208.167 78,207.5C 77.7105,205.048 77.0438,202.715 76,200.5C 75.6667,200.833 75.3333,201.167 75,201.5C 74,200.167 73,198.833 72,197.5C 71.1759,187.788 71.5093,178.121 73,168.5C 75.4312,165.583 76.5979,162.25 76.5,158.5C 79.1127,152.372 83.1127,147.205 88.5,143C 80.3889,145.756 74.0555,150.922 69.5,158.5C 68.2921,159.234 66.9587,159.567 65.5,159.5C 65.412,164.013 63.912,168.013 61,171.5C 60.5034,173.81 60.3367,176.143 60.5,178.5C 60.5,184.5 60.5,190.5 60.5,196.5C 60.7886,199.649 60.2886,202.649 59,205.5C 58.3333,204.833 57.6667,204.167 57,203.5C 56.8603,200.957 56.1937,198.623 55,196.5C 54.832,173.996 54.332,151.663 53.5,129.5C 49.7674,129.13 46.1007,128.463 42.5,127.5C 41.7629,125.695 40.7629,124.029 39.5,122.5C 37.3609,111.507 37.0275,100.507 38.5,89.5C 39.4916,89.6716 40.1583,89.3382 40.5,88.5C 41.4816,85.0381 41.815,81.3714 41.5,77.5C 51.1667,77.5 60.8333,77.5 70.5,77.5C 70.6655,81.5138 70.4988,85.5138 70,89.5C 68.2899,85.9826 66.2899,82.6492 64,79.5C 60.5894,80.2931 57.0894,80.7931 53.5,81C 57.3563,81.1773 61.023,81.6773 64.5,82.5 Z M 54.5,105.5 C 53.1637,109.51 53.3303,113.51 55,117.5C 65.6167,121.219 69.6167,117.553 67,106.5C 62.9341,105.536 58.7675,105.203 54.5,105.5 Z"/></g>
<g><path style="opacity:0.099" fill="#050705" d="M 69.5,116.5 C 69.5,116.833 69.5,117.167 69.5,117.5C 67.2426,119.923 64.5759,121.757 61.5,123C 53.8499,125.304 48.0166,123.138 44,116.5C 43.5004,109.842 43.3337,103.175 43.5,96.5C 52.1667,96.5 60.8333,96.5 69.5,96.5C 69.5,103.167 69.5,109.833 69.5,116.5 Z M 54.5,105.5 C 53.1637,109.51 53.3303,113.51 55,117.5C 65.6167,121.219 69.6167,117.553 67,106.5C 62.9341,105.536 58.7675,105.203 54.5,105.5 Z"/></g>
<g><path style="opacity:0.263" fill="#426f4d" d="M 64.5,82.5 C 64.5,82.8333 64.5,83.1667 64.5,83.5C 59.1667,83.5 53.8333,83.5 48.5,83.5C 48.5,85.1667 48.5,86.8333 48.5,88.5C 53.8333,88.5 59.1667,88.5 64.5,88.5C 59.0247,89.4889 53.358,89.8222 47.5,89.5C 47.5,87.1667 47.5,84.8333 47.5,82.5C 53.1667,82.5 58.8333,82.5 64.5,82.5 Z"/></g>
<g><path style="opacity:0.193" fill="#000000" d="M 64.5,83.5 C 64.5,85.1667 64.5,86.8333 64.5,88.5C 59.1667,88.5 53.8333,88.5 48.5,88.5C 48.5,86.8333 48.5,85.1667 48.5,83.5C 53.8333,83.5 59.1667,83.5 64.5,83.5 Z"/></g>
<g><path style="opacity:0.088" fill="#020302" d="M 118.5,154.5 C 121.979,156.403 125.646,158.07 129.5,159.5C 134.803,165.45 138.803,172.117 141.5,179.5C 141.64,185.536 141.307,191.536 140.5,197.5C 139.326,198.514 138.66,199.847 138.5,201.5C 137.833,201.833 137.167,202.167 136.5,202.5C 134.971,206.368 132.637,209.701 129.5,212.5C 125.97,214.511 122.303,216.345 118.5,218C 110.694,218.974 103.027,218.474 95.5,216.5C 91.6451,213.64 87.8118,210.64 84,207.5C 80.9849,202.476 78.8182,197.142 77.5,191.5C 77.2087,185.697 77.8754,180.031 79.5,174.5C 79.8406,171.484 81.0073,168.818 83,166.5C 92.5992,155.8 104.433,151.8 118.5,154.5 Z M 136.5,202.5 C 141.358,191.138 140.191,180.471 133,170.5C 118.421,159.058 104.755,160.058 92,173.5C 84.2864,188.133 86.7864,200.633 99.5,211C 114.251,218.002 126.585,215.169 136.5,202.5 Z"/></g>
<g><path style="opacity:0.027" fill="#69726c" d="M 221.5,151.5 C 221.833,151.5 222.167,151.5 222.5,151.5C 222.204,153.403 221.537,155.07 220.5,156.5C 220.5,155.5 220.5,154.5 220.5,153.5C 220.328,152.508 220.662,151.842 221.5,151.5 Z"/></g>
<g><path style="opacity:0.592" fill="#294f2e" d="M 529.5,150.5 C 530.38,152.137 531.046,153.97 531.5,156C 531.43,156.765 531.097,157.265 530.5,157.5C 529.781,155.236 529.448,152.903 529.5,150.5 Z"/></g>
<g><path style="opacity:0.153" fill="#6fa07a" d="M 42.5,127.5 C 46.1007,128.463 49.7674,129.13 53.5,129.5C 53.5,149.833 53.5,170.167 53.5,190.5C 52.5029,170.674 52.1695,150.674 52.5,130.5C 48.7144,130.68 45.381,129.68 42.5,127.5 Z"/></g>
<g><path style="opacity:1" fill="#17842c" d="M 137.5,158.5 C 135.332,157.821 133.332,156.821 131.5,155.5C 128.652,155.861 127.986,157.194 129.5,159.5C 125.646,158.07 121.979,156.403 118.5,154.5C 121.602,154.154 124.435,154.821 127,156.5C 127.87,155.892 128.37,155.059 128.5,154C 125.903,151.847 122.903,150.347 119.5,149.5C 111.494,148.301 103.494,148.301 95.5,149.5C 100.035,147.725 104.868,146.725 110,146.5C 120.87,146.857 130.037,150.857 137.5,158.5 Z"/></g>
<g><path style="opacity:1" fill="#1c8231" d="M 715.5,156.5 C 719.342,155.461 723.342,155.461 727.5,156.5C 727.759,153.52 726.426,151.687 723.5,151C 719.514,150.501 715.514,150.334 711.5,150.5C 718.441,147.516 724.941,148.516 731,153.5C 731.328,156.207 730.995,158.874 730,161.5C 729.586,161.957 729.086,162.291 728.5,162.5C 724.978,158.57 720.644,156.57 715.5,156.5 Z"/></g>
<g><path style="opacity:1" fill="#039321" d="M 289.5,158.5 C 289.5,157.833 289.5,157.167 289.5,156.5C 290.461,154.735 290.795,152.735 290.5,150.5C 294.167,150.5 297.833,150.5 301.5,150.5C 301.5,164.5 301.5,178.5 301.5,192.5C 298.091,192.751 294.758,192.417 291.5,191.5C 290.833,180.341 290.167,169.341 289.5,158.5 Z"/></g>
<g><path style="opacity:0.592" fill="#4b8355" d="M 665.5,155.5 C 663.088,158.438 661.255,161.771 660,165.5C 659.179,171.648 659.679,177.648 661.5,183.5C 656.365,175.744 656.198,167.744 661,159.5C 662.371,157.959 663.871,156.625 665.5,155.5 Z"/></g>
<g><path style="opacity:0.446" fill="#38533f" d="M 280.5,124.5 C 281.498,147.327 281.831,170.327 281.5,193.5C 280.167,193.5 278.833,193.5 277.5,193.5C 277.5,193.167 277.5,192.833 277.5,192.5C 278.5,192.5 279.5,192.5 280.5,192.5C 280.5,169.833 280.5,147.167 280.5,124.5 Z"/></g>
<g><path style="opacity:1" fill="#069223" d="M 529.5,150.5 C 529.448,152.903 529.781,155.236 530.5,157.5C 526.253,157.178 522.253,158.011 518.5,160C 516.253,161.995 515.253,164.495 515.5,167.5C 514.596,168.209 514.263,169.209 514.5,170.5C 513.509,177.313 513.175,184.313 513.5,191.5C 511.5,191.5 509.5,191.5 507.5,191.5C 507.5,178.167 507.5,164.833 507.5,151.5C 509.5,151.5 511.5,151.5 513.5,151.5C 513.216,153.415 513.549,155.081 514.5,156.5C 518.198,150.939 523.198,148.939 529.5,150.5 Z"/></g>
<g><path style="opacity:0.819" fill="#297a3b" d="M 640.5,149.5 C 643.167,149.5 645.833,149.5 648.5,149.5C 648.5,164.167 648.5,178.833 648.5,193.5C 645.833,193.5 643.167,193.5 640.5,193.5C 640.5,178.833 640.5,164.167 640.5,149.5 Z"/></g>
<g><path style="opacity:1" fill="#049223" d="M 641.5,150.5 C 643.5,150.5 645.5,150.5 647.5,150.5C 647.5,164.5 647.5,178.5 647.5,192.5C 645.533,192.739 643.699,192.406 642,191.5C 641.5,177.837 641.333,164.171 641.5,150.5 Z"/></g>
<g><path style="opacity:1" fill="#268839" d="M 711.5,150.5 C 710.793,152.134 709.627,153.468 708,154.5C 706.207,159.19 706.207,163.856 708,168.5C 709.916,169.928 712.083,170.928 714.5,171.5C 715.867,172.84 717.2,174.173 718.5,175.5C 707.448,173.638 702.948,167.305 705,156.5C 706.406,153.591 708.572,151.591 711.5,150.5 Z"/></g>
<g><path style="opacity:0.812" fill="#307e3c" d="M 487.5,149.5 C 491.167,149.5 494.833,149.5 498.5,149.5C 498.5,152.167 498.5,154.833 498.5,157.5C 494.958,157.187 491.625,157.521 488.5,158.5C 487.814,170.068 487.147,181.735 486.5,193.5C 483.833,193.5 481.167,193.5 478.5,193.5C 478.275,181.474 478.608,169.474 479.5,157.5C 476.167,157.5 472.833,157.5 469.5,157.5C 469.5,156.5 469.5,155.5 469.5,154.5C 472.831,156.298 476.498,156.964 480.5,156.5C 480.5,168.5 480.5,180.5 480.5,192.5C 482.262,192.643 483.929,192.309 485.5,191.5C 486.332,180.181 486.832,168.848 487,157.5C 490.394,156.544 493.894,156.211 497.5,156.5C 497.5,154.5 497.5,152.5 497.5,150.5C 493.958,150.813 490.625,150.479 487.5,149.5 Z"/></g>
<g><path style="opacity:0.459" fill="#3e5c47" d="M 488.5,158.5 C 489.145,170.548 488.478,182.215 486.5,193.5C 487.147,181.735 487.814,170.068 488.5,158.5 Z"/></g>
<g><path style="opacity:1" fill="#098e24" d="M 627.5,192.5 C 625.167,192.5 622.833,192.5 620.5,192.5C 620.827,183.318 620.493,174.318 619.5,165.5C 618.458,163.261 617.125,161.095 615.5,159C 608.372,155.82 602.705,157.32 598.5,163.5C 597.732,164.263 597.232,165.263 597,166.5C 596.5,175.16 596.334,183.827 596.5,192.5C 594.533,192.739 592.699,192.406 591,191.5C 590.333,178.167 590.333,164.833 591,151.5C 595.152,149.508 596.985,150.841 596.5,155.5C 598.167,155.5 599.833,155.5 601.5,155.5C 601.433,154.041 601.766,152.708 602.5,151.5C 603.681,149.933 605.347,149.099 607.5,149C 618.083,147.871 624.916,152.371 628,162.5C 628.825,172.675 628.658,182.675 627.5,192.5 Z"/></g>
<g><path style="opacity:1" fill="#0a9025" d="M 441.5,184.5 C 440.173,188.84 437.839,189.507 434.5,186.5C 429.089,180.528 427.256,173.528 429,165.5C 431.652,160.771 434.818,156.438 438.5,152.5C 447.6,147.03 456.434,147.696 465,154.5C 465.584,158.498 464.75,162.165 462.5,165.5C 461.289,163.578 459.956,161.745 458.5,160C 450.958,155.986 444.124,156.819 438,162.5C 433.854,170.737 435.021,178.07 441.5,184.5 Z"/></g>
<g><path style="opacity:0.659" fill="#276b30" d="M 69.5,158.5 C 65.9304,164.968 62.9304,171.634 60.5,178.5C 60.3367,176.143 60.5034,173.81 61,171.5C 63.912,168.013 65.412,164.013 65.5,159.5C 66.9587,159.567 68.2921,159.234 69.5,158.5 Z"/></g>
<g><path style="opacity:1" fill="#119127" d="M 157.5,157.5 C 158.338,157.842 158.672,158.508 158.5,159.5C 159.053,163.112 160.053,166.612 161.5,170C 161.249,172.792 161.249,175.625 161.5,178.5C 162.5,178.5 163.5,178.5 164.5,178.5C 165.156,187.725 164.156,196.725 161.5,205.5C 160.213,207.16 158.88,208.826 157.5,210.5C 157.167,210 156.833,209.5 156.5,209C 157.404,204.889 157.737,200.722 157.5,196.5C 158.878,183.863 156.878,171.863 151.5,160.5C 151.585,159.005 150.919,158.005 149.5,157.5C 148.501,169.482 148.168,181.482 148.5,193.5C 148.706,196.495 148.04,199.162 146.5,201.5C 145.146,203.371 143.479,205.037 141.5,206.5C 140.571,207.689 140.238,209.022 140.5,210.5C 138.654,210.778 137.32,210.111 136.5,208.5C 137.946,206.382 138.613,204.049 138.5,201.5C 138.66,199.847 139.326,198.514 140.5,197.5C 142.03,194.305 142.696,190.805 142.5,187C 142.497,184.31 142.164,181.81 141.5,179.5C 138.803,172.117 134.803,165.45 129.5,159.5C 127.986,157.194 128.652,155.861 131.5,155.5C 133.332,156.821 135.332,157.821 137.5,158.5C 138.833,159.167 139.833,160.167 140.5,161.5C 140.811,162.478 141.478,163.145 142.5,163.5C 143.167,159.167 143.833,154.833 144.5,150.5C 146.764,149.962 149.097,150.296 151.5,151.5C 152.619,154.391 154.619,156.391 157.5,157.5 Z"/></g>
<g><path style="opacity:0.751" fill="#15862e" d="M 513.5,151.5 C 511.5,151.5 509.5,151.5 507.5,151.5C 507.5,164.833 507.5,178.167 507.5,191.5C 509.5,191.5 511.5,191.5 513.5,191.5C 513.175,184.313 513.509,177.313 514.5,170.5C 514.5,177.833 514.5,185.167 514.5,192.5C 511.833,192.5 509.167,192.5 506.5,192.5C 506.5,178.5 506.5,164.5 506.5,150.5C 509.059,150.198 511.393,150.532 513.5,151.5 Z"/></g>
<g><path style="opacity:0.565" fill="#387f42" d="M 589.5,149.5 C 592.167,149.5 594.833,149.5 597.5,149.5C 597.34,151.199 597.506,152.866 598,154.5C 599.129,152.859 600.629,151.859 602.5,151.5C 601.766,152.708 601.433,154.041 601.5,155.5C 599.833,155.5 598.167,155.5 596.5,155.5C 596.985,150.841 595.152,149.508 591,151.5C 590.333,164.833 590.333,178.167 591,191.5C 592.699,192.406 594.533,192.739 596.5,192.5C 596.334,183.827 596.5,175.16 597,166.5C 597.232,165.263 597.732,164.263 598.5,163.5C 598.5,173.5 598.5,183.5 598.5,193.5C 595.167,193.5 591.833,193.5 588.5,193.5C 588.5,179.5 588.5,165.5 588.5,151.5C 588.328,150.508 588.662,149.842 589.5,149.5 Z"/></g>
<g><path style="opacity:1" fill="#088f24" d="M 711.5,150.5 C 715.514,150.334 719.514,150.501 723.5,151C 726.426,151.687 727.759,153.52 727.5,156.5C 723.342,155.461 719.342,155.461 715.5,156.5C 712.437,158.46 711.771,161.127 713.5,164.5C 716.782,166.873 720.448,168.373 724.5,169C 727.739,170.736 730.073,173.236 731.5,176.5C 731.5,178.833 731.5,181.167 731.5,183.5C 730.5,183.5 729.5,183.5 728.5,183.5C 728.728,185.355 728.061,186.188 726.5,186C 725.875,183.2 725.208,180.366 724.5,177.5C 723.158,175.995 721.492,175.328 719.5,175.5C 719.167,175.5 718.833,175.5 718.5,175.5C 717.2,174.173 715.867,172.84 714.5,171.5C 712.083,170.928 709.916,169.928 708,168.5C 706.207,163.856 706.207,159.19 708,154.5C 709.627,153.468 710.793,152.134 711.5,150.5 Z"/></g>
<g><path style="opacity:0.541" fill="#2f7c3c" d="M 267.5,124.5 C 271.833,124.5 276.167,124.5 280.5,124.5C 280.5,147.167 280.5,169.833 280.5,192.5C 279.5,192.5 278.5,192.5 277.5,192.5C 277.5,192.833 277.5,193.167 277.5,193.5C 273.894,193.789 270.394,193.456 267,192.5C 266.5,170.169 266.333,147.836 266.5,125.5C 266.5,124.833 266.833,124.5 267.5,124.5 Z"/></g>
<g><path style="opacity:1" fill="#019321" d="M 277.5,192.5 C 274.5,192.5 271.5,192.5 268.5,192.5C 268.333,170.497 268.5,148.497 269,126.5C 272.394,125.544 275.894,125.211 279.5,125.5C 280.139,148.064 279.473,170.397 277.5,192.5 Z"/></g>
<g><path style="opacity:0.804" fill="#287f3b" d="M 289.5,158.5 C 290.167,169.341 290.833,180.341 291.5,191.5C 294.758,192.417 298.091,192.751 301.5,192.5C 301.5,178.5 301.5,164.5 301.5,150.5C 297.833,150.5 294.167,150.5 290.5,150.5C 290.795,152.735 290.461,154.735 289.5,156.5C 289.5,154.167 289.5,151.833 289.5,149.5C 293.833,149.5 298.167,149.5 302.5,149.5C 302.5,164.167 302.5,178.833 302.5,193.5C 298.167,193.5 293.833,193.5 289.5,193.5C 289.5,181.833 289.5,170.167 289.5,158.5 Z"/></g>
<g><path style="opacity:0.596" fill="#408d4f" d="M 388.5,151.5 C 384.427,155.403 380.927,159.736 378,164.5C 376.809,171.909 377.975,178.909 381.5,185.5C 374.674,177.508 373.84,168.842 379,159.5C 381.766,156.223 384.933,153.557 388.5,151.5 Z"/></g>
<g><path style="opacity:1" fill="#059123" d="M 237.5,133.5 C 244.497,150.162 251.497,166.829 258.5,183.5C 258.873,186.574 259.539,189.574 260.5,192.5C 257.15,192.665 253.817,192.498 250.5,192C 248.934,189.674 247.268,187.508 245.5,185.5C 245.5,184.167 245.5,182.833 245.5,181.5C 238.159,181.334 230.826,181.5 223.5,182C 221.93,185.636 220.263,189.136 218.5,192.5C 214.833,192.5 211.167,192.5 207.5,192.5C 207.5,191.167 207.5,189.833 207.5,188.5C 210.381,179.746 214.047,171.413 218.5,163.5C 221.335,160.209 223.335,156.376 224.5,152C 225.535,150.726 226.702,149.56 228,148.5C 228.084,142.109 230.084,136.442 234,131.5C 234.816,132.823 235.983,133.489 237.5,133.5 Z"/></g>
<g><path style="opacity:0.392" fill="#1f682f" d="M 233.5,155.5 C 232.411,160.35 230.745,165.017 228.5,169.5C 231.833,170.833 235.167,170.833 238.5,169.5C 237.295,166.55 236.295,163.55 235.5,160.5C 236.15,160.804 236.817,161.137 237.5,161.5C 238.598,164.753 239.264,168.086 239.5,171.5C 235.5,171.5 231.5,171.5 227.5,171.5C 228.44,165.646 230.44,160.313 233.5,155.5 Z"/></g>
<g><path style="opacity:0.247" fill="#060b07" d="M 233.5,155.5 C 234.537,156.93 235.204,158.597 235.5,160.5C 236.295,163.55 237.295,166.55 238.5,169.5C 235.167,170.833 231.833,170.833 228.5,169.5C 230.745,165.017 232.411,160.35 233.5,155.5 Z"/></g>
<g><path style="opacity:0.969" fill="#1a772b" d="M 414.5,156.5 C 416.504,157.673 418.004,159.34 419,161.5C 419.499,165.821 419.666,170.154 419.5,174.5C 408.116,174.79 396.783,174.457 385.5,173.5C 396.038,172.812 406.705,172.145 417.5,171.5C 418.641,169.579 418.808,167.579 418,165.5C 416.895,162.461 415.728,159.461 414.5,156.5 Z"/></g>
<g><path style="opacity:0.307" fill="#4fa064" d="M 619.5,165.5 C 620.493,174.318 620.827,183.318 620.5,192.5C 622.833,192.5 625.167,192.5 627.5,192.5C 625.052,193.473 622.385,193.806 619.5,193.5C 619.5,184.167 619.5,174.833 619.5,165.5 Z"/></g>
<g><path style="opacity:0.59" fill="#418250" d="M 151.5,160.5 C 150.883,160.389 150.383,160.056 150,159.5C 149.831,171.007 149.331,182.341 148.5,193.5C 148.168,181.482 148.501,169.482 149.5,157.5C 150.919,158.005 151.585,159.005 151.5,160.5 Z"/></g>
<g><path style="opacity:0.749" fill="#3c8a49" d="M 357.5,124.5 C 360.5,124.5 363.5,124.5 366.5,124.5C 366.5,147.5 366.5,170.5 366.5,193.5C 363.5,193.5 360.5,193.5 357.5,193.5C 357.5,170.833 357.5,148.167 357.5,125.5C 357.5,125.167 357.5,124.833 357.5,124.5 Z"/></g>
<g><path style="opacity:1" fill="#079124" d="M 414.5,156.5 C 415.728,159.461 416.895,162.461 418,165.5C 418.808,167.579 418.641,169.579 417.5,171.5C 406.705,172.145 396.038,172.812 385.5,173.5C 386.301,175.042 386.634,176.708 386.5,178.5C 387.167,181.167 388.833,182.833 391.5,183.5C 391.918,184.222 392.584,184.722 393.5,185C 396.817,185.498 400.15,185.665 403.5,185.5C 406.896,184.802 410.229,184.802 413.5,185.5C 413.833,186 414.167,186.5 414.5,187C 413.571,188.077 412.904,189.244 412.5,190.5C 412.167,190.5 411.833,190.5 411.5,190.5C 404.302,192.82 396.968,193.154 389.5,191.5C 385.98,190.647 383.313,188.647 381.5,185.5C 377.975,178.909 376.809,171.909 378,164.5C 380.927,159.736 384.427,155.403 388.5,151.5C 398.306,146.781 406.972,148.447 414.5,156.5 Z"/></g>
<g><path style="opacity:0.132" fill="#020602" d="M 395.5,156.5 C 403.431,155.794 408.765,159.127 411.5,166.5C 402.833,167.833 394.167,167.833 385.5,166.5C 387.243,161.423 390.577,158.09 395.5,156.5 Z"/></g>
<g><path style="opacity:0.804" fill="#2e6838" d="M 386.5,178.5 C 388.5,179.833 390.167,181.5 391.5,183.5C 388.833,182.833 387.167,181.167 386.5,178.5 Z"/></g>
<g><path style="opacity:1" fill="#2f853c" d="M 412.5,190.5 C 412.904,189.244 413.571,188.077 414.5,187C 414.167,186.5 413.833,186 413.5,185.5C 410.229,184.802 406.896,184.802 403.5,185.5C 407.304,184.218 410.471,181.885 413,178.5C 416.406,182.864 416.239,186.864 412.5,190.5 Z"/></g>
<g><path style="opacity:1" fill="#0b9125" d="M 670.5,161.5 C 667.094,167.143 666.594,173.143 669,179.5C 670.777,181.79 672.944,183.457 675.5,184.5C 680.623,188.749 685.29,188.416 689.5,183.5C 691.252,181.754 692.585,179.754 693.5,177.5C 694.496,177.414 695.329,177.748 696,178.5C 696.997,181.801 697.33,185.134 697,188.5C 683.67,197.375 671.837,195.708 661.5,183.5C 659.679,177.648 659.179,171.648 660,165.5C 661.255,161.771 663.088,158.438 665.5,155.5C 666.585,153.413 668.251,152.08 670.5,151.5C 679.425,148.991 687.758,150.158 695.5,155C 696.332,163.995 694.332,164.662 689.5,157C 686.833,156.833 684.167,156.667 681.5,156.5C 677.334,156.341 673.334,157.008 669.5,158.5C 670.127,159.417 670.461,160.417 670.5,161.5 Z"/></g>
<g><path style="opacity:0.412" fill="#406947" d="M 79.5,174.5 C 77.8754,180.031 77.2087,185.697 77.5,191.5C 77.1667,191.5 76.8333,191.5 76.5,191.5C 76.3345,187.486 76.5012,183.486 77,179.5C 77.0995,177.347 77.9328,175.681 79.5,174.5 Z"/></g>
<g><path style="opacity:1" fill="#1f8432" d="M 719.5,175.5 C 721.492,175.328 723.158,175.995 724.5,177.5C 725.208,180.366 725.875,183.2 726.5,186C 728.061,186.188 728.728,185.355 728.5,183.5C 729.5,183.5 730.5,183.5 731.5,183.5C 731.5,181.167 731.5,178.833 731.5,176.5C 733.931,182.637 732.264,187.471 726.5,191C 719.649,195.573 712.983,195.406 706.5,190.5C 704.516,190.516 703.516,189.516 703.5,187.5C 704.328,184.521 704.995,181.521 705.5,178.5C 705.833,178.5 706.167,178.5 706.5,178.5C 708.471,180.808 710.471,183.142 712.5,185.5C 714.655,187.534 716.988,187.867 719.5,186.5C 726.143,182.886 726.143,179.219 719.5,175.5 Z"/></g>
<g><path style="opacity:0.904" fill="#1b8631" d="M 438.5,152.5 C 434.818,156.438 431.652,160.771 429,165.5C 427.256,173.528 429.089,180.528 434.5,186.5C 437.839,189.507 440.173,188.84 441.5,184.5C 442.167,184.5 442.833,184.5 443.5,184.5C 444.946,185.94 446.779,186.607 449,186.5C 450.385,186.486 451.551,186.152 452.5,185.5C 456.365,184.563 459.032,182.23 460.5,178.5C 460.842,177.662 461.508,177.328 462.5,177.5C 463.117,177.611 463.617,177.944 464,178.5C 464.5,181 465,183.5 465.5,186C 465.613,187.699 464.947,188.866 463.5,189.5C 463.5,186.833 463.5,184.167 463.5,181.5C 460.532,181.626 458.532,183.126 457.5,186C 453.227,187.03 448.894,187.697 444.5,188C 441.345,188.981 441.012,190.315 443.5,192C 447.821,192.499 452.154,192.666 456.5,192.5C 454.414,193.609 452.08,194.276 449.5,194.5C 432.304,191.797 425.138,181.797 428,164.5C 429.93,159.074 433.43,155.074 438.5,152.5 Z"/></g>
<g><path style="opacity:0.2" fill="#134921" d="M 443.5,184.5 C 446.455,185.159 449.455,185.492 452.5,185.5C 451.551,186.152 450.385,186.486 449,186.5C 446.779,186.607 444.946,185.94 443.5,184.5 Z"/></g>
<g><path style="opacity:1" fill="#397e40" d="M 689.5,183.5 C 685.29,188.416 680.623,188.749 675.5,184.5C 680.321,186.048 684.988,185.715 689.5,183.5 Z"/></g>
<g><path style="opacity:0.275" fill="#1b4f27" d="M 712.5,185.5 C 714.861,185.674 717.194,186.007 719.5,186.5C 716.988,187.867 714.655,187.534 712.5,185.5 Z"/></g>
<g><path style="opacity:1" fill="#049224" d="M 360.5,125.5 C 362.167,125.5 363.833,125.5 365.5,125.5C 365.5,147.833 365.5,170.167 365.5,192.5C 363.533,192.739 361.699,192.406 360,191.5C 359.179,169.427 359.345,147.427 360.5,125.5 Z"/></g>
<g><path style="opacity:0.997" fill="#049222" d="M 463.5,189.5 C 461.453,191.075 459.119,192.075 456.5,192.5C 452.154,192.666 447.821,192.499 443.5,192C 441.012,190.315 441.345,188.981 444.5,188C 448.894,187.697 453.227,187.03 457.5,186C 458.532,183.126 460.532,181.626 463.5,181.5C 463.5,184.167 463.5,186.833 463.5,189.5 Z"/></g>
<g><path style="opacity:0.161" fill="#4c8c5b" d="M 514.5,156.5 C 513.549,155.081 513.216,153.415 513.5,151.5C 511.393,150.532 509.059,150.198 506.5,150.5C 506.5,164.5 506.5,178.5 506.5,192.5C 509.167,192.5 511.833,192.5 514.5,192.5C 514.5,185.167 514.5,177.833 514.5,170.5C 514.263,169.209 514.596,168.209 515.5,167.5C 515.5,176.167 515.5,184.833 515.5,193.5C 512.167,193.5 508.833,193.5 505.5,193.5C 505.5,178.833 505.5,164.167 505.5,149.5C 508.5,149.5 511.5,149.5 514.5,149.5C 514.5,151.833 514.5,154.167 514.5,156.5 Z"/></g>
<g><path style="opacity:1" fill="#108e27" d="M 549.5,150.5 C 563.533,146.767 573.366,151.767 579,165.5C 581.112,182.561 573.612,192.227 556.5,194.5C 542.472,193.138 534.805,185.472 533.5,171.5C 534.17,160.818 539.504,153.818 549.5,150.5 Z M 556.5,166.5 C 555.496,167.683 554.662,169.016 554,170.5C 553.054,179.726 556.887,182.726 565.5,179.5C 570.029,170.023 567.029,165.69 556.5,166.5 Z"/></g>
<g><path style="opacity:0.273" fill="#254f2d" d="M 550.5,184.5 C 553.455,185.159 556.455,185.492 559.5,185.5C 558.551,186.152 557.385,186.486 556,186.5C 553.779,186.607 551.946,185.94 550.5,184.5 Z"/></g>
<g><path style="opacity:0.323" fill="#3d8948" d="M 565.5,159.5 C 566.496,159.414 567.329,159.748 568,160.5C 572.306,167.626 572.639,174.959 569,182.5C 567.644,183.38 566.144,183.714 564.5,183.5C 571.479,175.679 571.813,167.679 565.5,159.5 Z"/></g>
<g><path style="opacity:0.106" fill="#030403" d="M 565.5,159.5 C 571.813,167.679 571.479,175.679 564.5,183.5C 562.597,183.796 560.93,184.463 559.5,185.5C 556.455,185.492 553.455,185.159 550.5,184.5C 543.394,180.602 540.894,174.602 543,166.5C 546.529,158.154 552.696,155.321 561.5,158C 562.901,158.41 564.234,158.91 565.5,159.5 Z M 556.5,166.5 C 555.496,167.683 554.662,169.016 554,170.5C 553.054,179.726 556.887,182.726 565.5,179.5C 570.029,170.023 567.029,165.69 556.5,166.5 Z"/></g>
<g><path style="opacity:1" fill="#02951f" d="M 549.5,150.5 C 555.951,150.092 562.118,151.092 568,153.5C 570.104,159.219 568.938,159.885 564.5,155.5C 558.074,155.982 551.741,156.982 545.5,158.5C 543.889,157.68 543.222,156.346 543.5,154.5C 544.93,154.421 546.264,154.754 547.5,155.5C 548.562,153.978 549.229,152.312 549.5,150.5 Z"/></g>
<g><path style="opacity:0.157" fill="#90c79a" d="M 141.5,179.5 C 142.164,181.81 142.497,184.31 142.5,187C 142.696,190.805 142.03,194.305 140.5,197.5C 141.307,191.536 141.64,185.536 141.5,179.5 Z"/></g>
<g><path style="opacity:1" fill="#029323" d="M 706.5,190.5 C 706.034,182.56 708.034,181.726 712.5,188C 714,188.167 715.5,188.333 717,188.5C 719.887,187.896 722.72,187.229 725.5,186.5C 725.5,187.833 725.5,189.167 725.5,190.5C 722.333,190.862 719.5,191.529 717,192.5C 713.459,191.975 709.959,191.308 706.5,190.5 Z"/></g>
<g><path style="opacity:0.576" fill="#3c7e4c" d="M 207.5,188.5 C 207.5,189.833 207.5,191.167 207.5,192.5C 211.167,192.5 214.833,192.5 218.5,192.5C 214.366,193.485 210.032,193.818 205.5,193.5C 205.402,191.447 206.069,189.78 207.5,188.5 Z"/></g>
<g><path style="opacity:0.584" fill="#357943" d="M 258.5,183.5 C 260.403,186.53 261.737,189.863 262.5,193.5C 257.821,193.666 253.155,193.499 248.5,193C 247.358,190.55 246.358,188.05 245.5,185.5C 247.268,187.508 248.934,189.674 250.5,192C 253.817,192.498 257.15,192.665 260.5,192.5C 259.539,189.574 258.873,186.574 258.5,183.5 Z"/></g>
<g><path style="opacity:0.906" fill="#207931" d="M 411.5,190.5 C 404.368,195.376 397.035,195.71 389.5,191.5C 396.968,193.154 404.302,192.82 411.5,190.5 Z"/></g>
<g><path style="opacity:0.725" fill="#296431" d="M 61.5,196.5 C 63.0026,200.341 64.3359,204.341 65.5,208.5C 62.8037,205.079 61.4703,201.079 61.5,196.5 Z"/></g>
<g><path style="opacity:1" fill="#1e8630" d="M 53.5,129.5 C 54.332,151.663 54.832,173.996 55,196.5C 56.1937,198.623 56.8603,200.957 57,203.5C 57.6667,204.167 58.3333,204.833 59,205.5C 60.2886,202.649 60.7886,199.649 60.5,196.5C 60.8333,196.5 61.1667,196.5 61.5,196.5C 61.4703,201.079 62.8037,205.079 65.5,208.5C 66.8897,209.899 67.8897,211.566 68.5,213.5C 66.2871,212.749 64.2871,211.582 62.5,210C 61.1667,209.333 61.1667,208.667 62.5,208C 61.2752,207.437 60.2752,207.77 59.5,209C 61.3831,213.265 63.3831,217.431 65.5,221.5C 62.0818,218.561 59.5818,214.894 58,210.5C 55.1457,204.112 53.6457,197.445 53.5,190.5C 53.5,170.167 53.5,149.833 53.5,129.5 Z"/></g>
<g><path style="opacity:1" fill="#208632" d="M 76.5,158.5 C 76.5979,162.25 75.4312,165.583 73,168.5C 71.5093,178.121 71.1759,187.788 72,197.5C 73,198.833 74,200.167 75,201.5C 75.3333,201.167 75.6667,200.833 76,200.5C 77.0438,202.715 77.7105,205.048 78,207.5C 78.6667,208.167 79.3333,208.833 80,209.5C 80.7068,205.786 79.8735,202.453 77.5,199.5C 76.52,196.914 76.1866,194.247 76.5,191.5C 76.8333,191.5 77.1667,191.5 77.5,191.5C 78.8182,197.142 80.9849,202.476 84,207.5C 87.8118,210.64 91.6451,213.64 95.5,216.5C 93.712,216.785 92.0453,216.452 90.5,215.5C 88.1557,213.98 85.9891,212.313 84,210.5C 83.5,210.833 83,211.167 82.5,211.5C 83.0983,212.795 83.5983,214.128 84,215.5C 89.6306,217.991 94.7973,220.991 99.5,224.5C 98.5,224.5 97.5,224.5 96.5,224.5C 91.9099,222.872 87.5765,220.705 83.5,218C 71.0634,206.438 66.5634,192.272 70,175.5C 70.9116,169.252 73.0783,163.585 76.5,158.5 Z"/></g>
<g><path style="opacity:1" fill="#2e8a39" d="M 138.5,201.5 C 138.613,204.049 137.946,206.382 136.5,208.5C 137.32,210.111 138.654,210.778 140.5,210.5C 140.238,209.022 140.571,207.689 141.5,206.5C 143.479,205.037 145.146,203.371 146.5,201.5C 145.14,207.534 141.807,212.201 136.5,215.5C 136.36,213.876 137.027,212.71 138.5,212C 136.782,211.654 135.115,211.154 133.5,210.5C 132.378,211.63 131.044,212.297 129.5,212.5C 132.637,209.701 134.971,206.368 136.5,202.5C 137.167,202.167 137.833,201.833 138.5,201.5 Z"/></g>
<g><path style="opacity:1" fill="#2e823a" d="M 158.5,159.5 C 169.571,179.526 168.904,199.192 156.5,218.5C 157.363,216.105 157.363,213.771 156.5,211.5C 155.205,212.098 153.872,212.598 152.5,213C 149.536,216.966 146.203,220.633 142.5,224C 141.906,224.464 141.239,224.631 140.5,224.5C 148.757,216.637 154.424,207.304 157.5,196.5C 157.737,200.722 157.404,204.889 156.5,209C 156.833,209.5 157.167,210 157.5,210.5C 158.88,208.826 160.213,207.16 161.5,205.5C 164.156,196.725 165.156,187.725 164.5,178.5C 163.5,178.5 162.5,178.5 161.5,178.5C 161.249,175.625 161.249,172.792 161.5,170C 160.053,166.612 159.053,163.112 158.5,159.5 Z"/></g>
<g><path style="opacity:1" fill="#228830" d="M 136.5,215.5 C 131.743,220.883 125.743,224.216 118.5,225.5C 118.64,223.876 117.973,222.71 116.5,222C 116.833,221.667 117.167,221.333 117.5,221C 111.167,220.667 104.833,220.333 98.5,220C 96.9371,219.241 95.9371,218.074 95.5,216.5C 103.027,218.474 110.694,218.974 118.5,218C 122.303,216.345 125.97,214.511 129.5,212.5C 131.044,212.297 132.378,211.63 133.5,210.5C 135.115,211.154 136.782,211.654 138.5,212C 137.027,212.71 136.36,213.876 136.5,215.5 Z"/></g>
<g><path style="opacity:1" fill="#049322" d="M 68.5,213.5 C 68.5175,216.523 69.5175,219.19 71.5,221.5C 72.7362,222.246 74.0695,222.579 75.5,222.5C 75.5,223.833 75.5,225.167 75.5,226.5C 73.712,226.785 72.0453,226.452 70.5,225.5C 69.3954,223.389 67.7288,222.055 65.5,221.5C 63.3831,217.431 61.3831,213.265 59.5,209C 60.2752,207.77 61.2752,207.437 62.5,208C 61.1667,208.667 61.1667,209.333 62.5,210C 64.2871,211.582 66.2871,212.749 68.5,213.5 Z"/></g>
<g><path style="opacity:1" fill="#029422" d="M 95.5,216.5 C 95.9371,218.074 96.9371,219.241 98.5,220C 104.833,220.333 111.167,220.667 117.5,221C 117.167,221.333 116.833,221.667 116.5,222C 117.973,222.71 118.64,223.876 118.5,225.5C 112.108,225.751 105.775,225.418 99.5,224.5C 94.7973,220.991 89.6306,217.991 84,215.5C 83.5983,214.128 83.0983,212.795 82.5,211.5C 83,211.167 83.5,210.833 84,210.5C 85.9891,212.313 88.1557,213.98 90.5,215.5C 92.0453,216.452 93.712,216.785 95.5,216.5 Z"/></g>
<g><path style="opacity:0.816" fill="#297134" d="M 96.5,224.5 C 97.5,224.5 98.5,224.5 99.5,224.5C 105.775,225.418 112.108,225.751 118.5,225.5C 111.055,228.267 103.721,227.934 96.5,224.5 Z"/></g>
<g><path style="opacity:1" fill="#218331" d="M 68.5,213.5 C 82.4897,231.645 100.823,238.311 123.5,233.5C 123.5,234.5 123.5,235.5 123.5,236.5C 113.585,236.893 103.752,236.226 94,234.5C 90.5127,232.348 86.6793,231.181 82.5,231C 81.4404,229.702 80.2737,228.535 79,227.5C 76.3894,228.5 75.8894,230.167 77.5,232.5C 72.2435,230.245 68.2435,226.578 65.5,221.5C 67.7288,222.055 69.3954,223.389 70.5,225.5C 72.0453,226.452 73.712,226.785 75.5,226.5C 75.5,225.167 75.5,223.833 75.5,222.5C 74.0695,222.579 72.7362,222.246 71.5,221.5C 69.5175,219.19 68.5175,216.523 68.5,213.5 Z"/></g>
<g><path style="opacity:0.984" fill="#398e45" d="M 140.5,224.5 C 140.079,226.91 138.746,228.743 136.5,230C 132.553,231.484 128.553,232.65 124.5,233.5C 130.09,231.036 135.423,228.036 140.5,224.5 Z"/></g>
<g><path style="opacity:1" fill="#059123" d="M 156.5,218.5 C 152.833,222.5 149.167,226.5 145.5,230.5C 142.21,227.569 140.21,228.403 139.5,233C 125.056,240.137 109.722,242.47 93.5,240C 92.09,239.632 91.09,238.799 90.5,237.5C 88.2573,236.526 85.924,236.192 83.5,236.5C 81.1475,235.66 79.1475,234.326 77.5,232.5C 75.8894,230.167 76.3894,228.5 79,227.5C 80.2737,228.535 81.4404,229.702 82.5,231C 86.6793,231.181 90.5127,232.348 94,234.5C 103.752,236.226 113.585,236.893 123.5,236.5C 123.5,235.5 123.5,234.5 123.5,233.5C 123.833,233.5 124.167,233.5 124.5,233.5C 128.553,232.65 132.553,231.484 136.5,230C 138.746,228.743 140.079,226.91 140.5,224.5C 141.239,224.631 141.906,224.464 142.5,224C 146.203,220.633 149.536,216.966 152.5,213C 153.872,212.598 155.205,212.098 156.5,211.5C 157.363,213.771 157.363,216.105 156.5,218.5 Z"/></g>
<g><path style="opacity:1" fill="#15832b" d="M 145.5,230.5 C 138.541,236.311 130.541,239.977 121.5,241.5C 113.5,241.5 105.5,241.5 97.5,241.5C 92.198,241.401 87.5313,239.734 83.5,236.5C 85.924,236.192 88.2573,236.526 90.5,237.5C 91.09,238.799 92.09,239.632 93.5,240C 109.722,242.47 125.056,240.137 139.5,233C 140.21,228.403 142.21,227.569 145.5,230.5 Z"/></g>
<g><path style="opacity:0.802" fill="#276c37" d="M 97.5,241.5 C 105.5,241.5 113.5,241.5 121.5,241.5C 113.495,244.107 105.495,244.107 97.5,241.5 Z"/></g>
</svg>
